<?xml version="1.0" standalone="no"?><!DOCTYPE svg PUBLIC "-//W3C//DTD SVG 1.1//EN" "http://www.w3.org/Graphics/SVG/1.1/DTD/svg11.dtd"><svg t="1709796238504" class="icon" viewBox="0 0 1030 1024" version="1.1" xmlns="http://www.w3.org/2000/svg" p-id="1213" xmlns:xlink="http://www.w3.org/1999/xlink" width="201.171875" height="200"><path d="M455.849833 0C204.062741 0 0 204.062741 0 455.849833s204.062741 455.849833 455.849833 455.849833 455.849833-204.062741 455.849833-455.849833S707.636925 0 455.849833 0z m0 826.124968C251.655438 826.124968 85.574698 660.044227 85.574698 455.849833S251.655438 85.574698 455.849833 85.574698s370.275135 166.080741 370.275135 370.275135-166.080741 370.275135-370.275135 370.275135zM1017.680638 950.932373l-142.712266-142.712265c-16.719979-16.719979-43.774749-16.719979-60.494728 0s-16.719979 43.774749 0 60.494729l142.712265 142.712265c8.35999 8.35999 19.28722 12.507071 30.280278 12.507071s21.920288-4.147082 30.280277-12.507071a42.747853 42.747853 0 0 0 0-60.494729z" p-id="1214"></path></svg>