<?xml version="1.0" standalone="no"?><!DOCTYPE svg PUBLIC "-//W3C//DTD SVG 1.1//EN" "http://www.w3.org/Graphics/SVG/1.1/DTD/svg11.dtd"><svg t="1709796243414" class="icon" viewBox="0 0 1501 1024" version="1.1" xmlns="http://www.w3.org/2000/svg" p-id="1366" xmlns:xlink="http://www.w3.org/1999/xlink" width="293.1640625" height="200"><path d="M1205.169231 363.362462C1157.986462 153.442462 969.806769 0 750.670769 0S343.355077 153.442462 296.172308 363.362462C129.969231 380.928 0 522.003692 0 692.775385 0 875.441231 148.558769 1024 331.224615 1024h64.118154a51.2 51.2 0 1 0 0-102.4h-64.118154C205.036308 921.6 102.4 818.963692 102.4 692.775385S205.036308 463.950769 331.224615 463.950769c1.339077 0 2.678154 0 4.096 0.078769l49.073231 1.417847 5.907692-46.001231C413.380923 238.670769 568.32 102.4 750.749538 102.4s337.368615 136.270769 360.448 317.046154l5.907693 46.001231 49.073231-1.417847c1.339077 0 2.678154-0.078769 4.096-0.078769 126.188308 0 228.824615 102.636308 228.824615 228.824616S1296.462769 921.6 1170.274462 921.6h-64.669539a51.2 51.2 0 1 0 0 102.4h64.669539c182.665846 0 331.224615-148.558769 331.224615-331.224615 0-170.771692-129.969231-311.847385-296.172308-329.412923z" p-id="1367"></path><path d="M791.000615 518.065231c-4.253538-4.253538-9.058462-7.561846-14.178461-10.003693-7.640615-4.489846-16.462769-7.168-25.993846-7.168-8.979692 0-17.486769 2.363077-24.812308 6.459077-5.671385 2.520615-11.027692 5.986462-15.753846 10.712616L523.657846 704.669538a51.152738 51.152738 0 0 0 36.233846 87.355077c13.154462 0 26.230154-4.962462 36.233846-14.966153L699.707077 673.476923v294.518154a51.2 51.2 0 1 0 102.4 0V673.870769l103.187692 103.187693c10.003692 10.003692 23.079385 14.966154 36.233846 14.966153s26.230154-4.962462 36.233847-14.966153a51.152738 51.152738 0 0 0 0-72.388924l-186.604308-186.604307z" p-id="1368"></path></svg>